<svg width="16" height="16" viewBox="0 0 16 16" fill="none" xmlns="http://www.w3.org/2000/svg">
<path d="M8.76873 11.6406L13.7689 5.64036C13.9377 5.43638 14.0187 5.17386 13.9943 4.91027C13.9698 4.64668 13.8419 4.40352 13.6386 4.23402C13.4353 4.06453 13.173 3.98252 12.9094 4.00596C12.6457 4.02939 12.402 4.15636 12.2318 4.35906L8.00012 9.4374L3.76845 4.35906C3.59843 4.15558 3.35459 4.02791 3.0905 4.00409C2.8264 3.98028 2.56366 4.06226 2.35997 4.23204C2.15629 4.40182 2.02833 4.6455 2.00419 4.90957C1.98006 5.17363 2.06173 5.43647 2.23127 5.64036L7.23157 11.6406C7.32556 11.7531 7.44311 11.8436 7.57592 11.9057C7.70872 11.9678 7.85354 12 8.00015 12C8.14676 12 8.29158 11.9678 8.42438 11.9057C8.55719 11.8436 8.67474 11.7531 8.76873 11.6406Z" fill="white"/>
</svg>
