<svg width="24" height="25" viewBox="0 0 24 25" fill="none" xmlns="http://www.w3.org/2000/svg">
<path opacity="0.1" fill-rule="evenodd" clip-rule="evenodd" d="M0 12.456C0 5.82858 5.37258 0.455994 12 0.455994C18.6274 0.455994 24 5.82858 24 12.456C24 19.0834 18.6274 24.456 12 24.456C5.37258 24.456 0 19.0834 0 12.456Z" fill="white"/>
<path fill-rule="evenodd" clip-rule="evenodd" d="M18.4 12.4471C18.4 12.8799 18.3559 13.3121 18.2694 13.7334C18.185 14.1448 18.06 14.5486 17.8962 14.9346C17.7362 15.3138 17.5378 15.6792 17.3059 16.0199C17.0774 16.3586 16.8143 16.6762 16.5252 16.9658C16.2355 17.2542 15.9167 17.5166 15.5783 17.746C15.2364 17.9763 14.8705 18.1744 14.4911 18.3352C14.1045 18.4981 13.6997 18.6229 13.2888 18.7071C12.8669 18.7939 12.4331 18.8382 11.9997 18.8382C11.5659 18.8382 11.1321 18.7939 10.7109 18.7071C10.2993 18.6229 9.89459 18.4981 9.50832 18.3352C9.12893 18.1744 8.76264 17.9763 8.42076 17.746C8.0823 17.5166 7.76354 17.2542 7.47446 16.9658C7.18508 16.6762 6.92193 16.3586 6.69317 16.0199C6.46253 15.6792 6.26376 15.3137 6.10313 14.9346C5.93936 14.5486 5.81405 14.1447 5.72936 13.7334C5.64374 13.3121 5.59998 12.8799 5.59998 12.4471C5.59998 12.014 5.64371 11.5808 5.72939 11.1604C5.81408 10.7491 5.93938 10.3447 6.10316 9.95929C6.26378 9.57983 6.46256 9.2141 6.69319 8.87331C6.92195 8.53442 7.18511 8.21734 7.47449 7.92742C7.76357 7.63906 8.08233 7.37726 8.42078 7.14821C8.76267 6.91695 9.12895 6.71882 9.50834 6.55778C9.89462 6.39454 10.2993 6.26941 10.7109 6.18579C11.1322 6.09967 11.5659 6.05597 11.9997 6.05597C12.4332 6.05597 12.8669 6.09967 13.2888 6.18579C13.6998 6.26944 14.1045 6.39456 14.4911 6.55778C14.8705 6.71879 15.2364 6.91695 15.5783 7.14821C15.9168 7.37726 16.2356 7.63906 16.5252 7.92742C16.8143 8.21734 17.0775 8.53442 17.3059 8.87331C17.5378 9.2141 17.7362 9.57986 17.8962 9.95929C18.06 10.3447 18.185 10.7491 18.2694 11.1604C18.3559 11.5808 18.4 12.014 18.4 12.4471ZM9.66766 7.5105C8.14351 8.22921 7.00595 9.63162 6.65124 11.3218C6.79533 11.323 9.07295 11.3517 11.6971 10.6555C10.7512 8.97721 9.74049 7.60758 9.66766 7.5105ZM12.15 11.4959C9.33577 12.3372 6.6353 12.2767 6.53844 12.273C6.53686 12.3316 6.53405 12.3884 6.53405 12.4471C6.53405 13.8492 7.06376 15.1274 7.93444 16.0939C7.93256 16.0911 9.42828 13.4413 12.3778 12.4889C12.449 12.4652 12.5216 12.444 12.5934 12.4234C12.4563 12.1132 12.3065 11.8024 12.15 11.4959ZM15.6092 8.35091C14.647 7.50363 13.3835 6.98969 11.9997 6.98969C11.5556 6.98969 11.1246 7.04337 10.7118 7.1426C10.7937 7.25246 11.8203 8.61243 12.755 10.3263C14.8173 9.55424 15.5958 8.37087 15.6092 8.35091ZM12.966 13.3277C12.9538 13.3318 12.9416 13.3352 12.9297 13.3396C9.70494 14.4622 8.65184 16.7245 8.64045 16.7492C9.56833 17.4698 10.7321 17.9045 11.9997 17.9045C12.7566 17.9045 13.4776 17.7506 14.1335 17.472C14.0526 16.9951 13.7351 15.3237 12.966 13.3277ZM15.0539 16.9733C16.2811 16.1463 17.1527 14.8332 17.3959 13.3121C17.2834 13.2759 15.7542 12.7925 13.9901 13.0749C14.707 15.0422 14.9983 16.6444 15.0539 16.9733ZM13.1757 11.1395C13.3026 11.3998 13.4254 11.6647 13.5388 11.9309C13.5792 12.0264 13.6185 12.1201 13.657 12.2137C15.5346 11.9777 17.3843 12.3747 17.4634 12.3909C17.4509 11.0971 16.9874 9.90966 16.2206 8.98004C16.2102 8.99467 15.3336 10.2595 13.1757 11.1395Z" fill="white"/>
</svg>
