<svg width="24" height="25" viewBox="0 0 24 25" fill="none" xmlns="http://www.w3.org/2000/svg">
<path opacity="0.1" fill-rule="evenodd" clip-rule="evenodd" d="M0 12.456C0 5.82858 5.37258 0.455994 12 0.455994C18.6274 0.455994 24 5.82858 24 12.456C24 19.0834 18.6274 24.456 12 24.456C5.37258 24.456 0 19.0834 0 12.456Z" fill="white"/>
<path fill-rule="evenodd" clip-rule="evenodd" d="M12.0006 6.05597C10.2624 6.05597 10.0443 6.06357 9.36161 6.09464C8.68027 6.12584 8.2152 6.2337 7.80827 6.39197C7.38733 6.55544 7.03026 6.77411 6.67452 7.12998C6.31852 7.48572 6.09985 7.84279 5.93585 8.26359C5.77718 8.67066 5.66918 9.13587 5.63851 9.81694C5.60798 10.4996 5.59998 10.7179 5.59998 12.456C5.59998 14.1942 5.60771 14.4117 5.63864 15.0943C5.66998 15.7757 5.77784 16.2407 5.93598 16.6477C6.09958 17.0686 6.31825 17.4257 6.67412 17.7814C7.02972 18.1374 7.38679 18.3566 7.80747 18.5201C8.21467 18.6784 8.67987 18.7862 9.36108 18.8174C10.0438 18.8485 10.2618 18.8561 11.9998 18.8561C13.7381 18.8561 13.9555 18.8485 14.6382 18.8174C15.3195 18.7862 15.7851 18.6784 16.1924 18.5201C16.6132 18.3566 16.9697 18.1374 17.3253 17.7814C17.6813 17.4257 17.9 17.0686 18.064 16.6478C18.2213 16.2407 18.3293 15.7755 18.3613 15.0945C18.392 14.4118 18.4 14.1942 18.4 12.456C18.4 10.7179 18.392 10.4997 18.3613 9.81707C18.3293 9.13573 18.2213 8.67066 18.064 8.26373C17.9 7.84279 17.6813 7.48572 17.3253 7.12998C16.9693 6.77398 16.6133 6.55531 16.192 6.39197C15.7839 6.2337 15.3186 6.12584 14.6373 6.09464C13.9546 6.06357 13.7373 6.05597 11.9986 6.05597H12.0006ZM11.4264 7.2093C11.5968 7.20903 11.7869 7.2093 12.0005 7.2093C13.7094 7.2093 13.9119 7.21543 14.5867 7.2461C15.2107 7.27463 15.5494 7.3789 15.775 7.4665C16.0737 7.5825 16.2866 7.72117 16.5105 7.94517C16.7345 8.16917 16.8731 8.38251 16.9894 8.68118C17.077 8.90651 17.1814 9.24518 17.2098 9.86919C17.2405 10.5439 17.2471 10.7465 17.2471 12.4546C17.2471 14.1626 17.2405 14.3652 17.2098 15.0399C17.1813 15.6639 17.077 16.0026 16.9894 16.2279C16.8734 16.5266 16.7345 16.7393 16.5105 16.9631C16.2865 17.1871 16.0738 17.3258 15.775 17.4418C15.5497 17.5298 15.2107 17.6338 14.5867 17.6623C13.912 17.693 13.7094 17.6997 12.0005 17.6997C10.2916 17.6997 10.0891 17.693 9.41439 17.6623C8.79038 17.6335 8.45171 17.5293 8.22598 17.4417C7.92731 17.3257 7.71397 17.187 7.48997 16.963C7.26597 16.739 7.1273 16.5262 7.01103 16.2274C6.92343 16.0021 6.81903 15.6634 6.79063 15.0394C6.75996 14.3647 6.75383 14.162 6.75383 12.453C6.75383 10.7439 6.75996 10.5423 6.79063 9.86759C6.81916 9.24358 6.92343 8.90491 7.01103 8.67931C7.12703 8.38064 7.26597 8.16731 7.48997 7.9433C7.71397 7.7193 7.92731 7.58063 8.22598 7.46437C8.45158 7.37636 8.79038 7.27236 9.41439 7.2437C10.0048 7.21703 10.2336 7.20903 11.4264 7.2077V7.2093ZM15.4169 8.27198C14.9928 8.27198 14.6488 8.61558 14.6488 9.03972C14.6488 9.46372 14.9928 9.80773 15.4169 9.80773C15.8409 9.80773 16.1849 9.46372 16.1849 9.03972C16.1849 8.61571 15.8409 8.27198 15.4169 8.27198ZM12.0006 9.16932C10.1855 9.16932 8.71389 10.6409 8.71389 12.456C8.71389 14.2711 10.1855 15.7421 12.0006 15.7421C13.8157 15.7421 15.2868 14.2711 15.2868 12.456C15.2868 10.6409 13.8157 9.16932 12.0006 9.16932ZM12.0006 10.3227C13.1787 10.3227 14.1339 11.2777 14.1339 12.456C14.1339 13.6342 13.1787 14.5894 12.0006 14.5894C10.8223 14.5894 9.86721 13.6342 9.86721 12.456C9.86721 11.2777 10.8223 10.3227 12.0006 10.3227Z" fill="white"/>
</svg>
