<svg width="24" height="25" viewBox="0 0 24 25" fill="none" xmlns="http://www.w3.org/2000/svg">
<path opacity="0.1" fill-rule="evenodd" clip-rule="evenodd" d="M0 12.456C0 5.82858 5.37258 0.455994 12 0.455994C18.6274 0.455994 24 5.82858 24 12.456C24 19.0834 18.6274 24.456 12 24.456C5.37258 24.456 0 19.0834 0 12.456Z" fill="white"/>
<path fill-rule="evenodd" clip-rule="evenodd" d="M11.6406 10.2098L11.6658 10.625L11.2461 10.5741C9.71843 10.3792 8.38383 9.71826 7.25067 8.60817L6.69668 8.05735L6.55399 8.46411C6.25181 9.37083 6.44487 10.3284 7.0744 10.9724C7.41015 11.3283 7.33461 11.3792 6.75544 11.1673C6.55399 11.0995 6.37772 11.0487 6.36093 11.0741C6.30218 11.1334 6.50363 11.9046 6.66311 12.2096C6.88134 12.6333 7.32621 13.0486 7.81305 13.2943L8.22434 13.4892L7.73751 13.4977C7.26746 13.4977 7.25067 13.5062 7.30103 13.6841C7.46891 14.2349 8.13201 14.8196 8.87066 15.0738L9.39108 15.2518L8.93781 15.523C8.26631 15.9128 7.4773 16.1331 6.68829 16.15C6.31057 16.1585 6 16.1924 6 16.2178C6 16.3026 7.02404 16.7771 7.61999 16.9636C9.40786 17.5144 11.5315 17.2771 13.1263 16.3365C14.2595 15.667 15.3926 14.3366 15.9214 13.0486C16.2068 12.3622 16.4922 11.108 16.4922 10.5063C16.4922 10.1165 16.5174 10.0657 16.9874 9.59963C17.2644 9.32846 17.5246 9.03187 17.575 8.94713C17.6589 8.78612 17.6505 8.78612 17.2224 8.93018C16.509 9.1844 16.4083 9.1505 16.7608 8.76917C17.021 8.498 17.3316 8.00651 17.3316 7.86245C17.3316 7.83703 17.2057 7.8794 17.063 7.95567C16.9119 8.04041 16.5761 8.16752 16.3243 8.24378L15.8711 8.38784L15.4598 8.1082C15.2331 7.95567 14.9142 7.78619 14.7463 7.73534C14.3182 7.61671 13.6635 7.63365 13.2774 7.76924C12.2282 8.15057 11.5651 9.13356 11.6406 10.2098Z" fill="white"/>
</svg>
