<svg width="24" height="25" viewBox="0 0 24 25" fill="none" xmlns="http://www.w3.org/2000/svg">
<path opacity="0.1" fill-rule="evenodd" clip-rule="evenodd" d="M0 12.456C0 5.82858 5.37258 0.455994 12 0.455994C18.6274 0.455994 24 5.82858 24 12.456C24 19.0834 18.6274 24.456 12 24.456C5.37258 24.456 0 19.0834 0 12.456Z" fill="white"/>
<path fill-rule="evenodd" clip-rule="evenodd" d="M17.0008 8.33069C17.5515 8.48183 17.9853 8.92714 18.1325 9.49264C18.4 10.5175 18.4 12.656 18.4 12.656C18.4 12.656 18.4 14.7944 18.1325 15.8194C17.9853 16.3849 17.5515 16.8302 17.0008 16.9814C16.0027 17.256 12 17.256 12 17.256C12 17.256 7.99728 17.256 6.9991 16.9814C6.44834 16.8302 6.01459 16.3849 5.86739 15.8194C5.59998 14.7944 5.59998 12.656 5.59998 12.656C5.59998 12.656 5.59998 10.5175 5.86739 9.49264C6.01459 8.92714 6.44834 8.48183 6.9991 8.33069C7.99728 8.05603 12 8.05603 12 8.05603C12 8.05603 16.0027 8.05603 17.0008 8.33069ZM10.8 10.856V14.856L14 12.8561L10.8 10.856Z" fill="white"/>
</svg>
