<svg width="184" height="40" viewBox="0 0 184 40" fill="none" xmlns="http://www.w3.org/2000/svg">
<path d="M39.9458 3.18182L33.1839 29.8864H23.7642L19.9729 13.5227L16.1034 29.8864H6.68369L0 3.18182H8.28621L11.4913 21.4394L15.8298 3.18182H24.2333L28.4546 21.2879L31.6596 3.18182H39.9458Z" fill="white"/>
<path d="M53.3981 30.1515C51.2093 30.1515 49.2419 29.7096 47.4961 28.8258C45.7763 27.9419 44.4213 26.6793 43.4312 25.0379C42.441 23.3965 41.9459 21.4646 41.9459 19.2424C41.9459 17.0455 42.441 15.1263 43.4312 13.4848C44.4474 11.8434 45.8154 10.5808 47.5352 9.69697C49.281 8.81313 51.2484 8.37121 53.4372 8.37121C55.626 8.37121 57.5803 8.81313 59.3001 9.69697C61.0459 10.5808 62.4139 11.8434 63.4041 13.4848C64.4203 15.1263 64.9284 17.0455 64.9284 19.2424C64.9284 21.4394 64.4203 23.3712 63.4041 25.0379C62.4139 26.6793 61.0459 27.9419 59.3001 28.8258C57.5542 29.7096 55.5869 30.1515 53.3981 30.1515ZM53.3981 23.7121C54.4664 23.7121 55.3524 23.3333 56.0559 22.5758C56.7855 21.7929 57.1503 20.6818 57.1503 19.2424C57.1503 17.803 56.7855 16.7045 56.0559 15.947C55.3524 15.1894 54.4795 14.8106 53.4372 14.8106C52.3949 14.8106 51.522 15.1894 50.8184 15.947C50.1149 16.7045 49.7631 17.803 49.7631 19.2424C49.7631 20.7071 50.1018 21.8182 50.7793 22.5758C51.4568 23.3333 52.3297 23.7121 53.3981 23.7121Z" fill="white"/>
<path d="M75.7061 12.3864C76.566 11.1742 77.6082 10.2146 78.8329 9.50757C80.0576 8.8005 81.3735 8.44697 82.7806 8.44697V16.3636H80.6309C78.9632 16.3636 77.7255 16.6793 76.9177 17.3106C76.1099 17.9419 75.7061 19.0404 75.7061 20.6061V29.8864H68.0452V8.63636H75.7061V12.3864Z" fill="white"/>
<path d="M99.2462 29.8864L93.1879 21.1742V29.8864H85.527V1.85606H93.1879V16.9697L99.2462 8.63636H108.431L99.7934 19.3182L108.588 29.8864H99.2462Z" fill="white"/>
<path d="M118.494 1.85606V29.8864H110.834V1.85606H118.494Z" fill="#D7FFDA"/>
<path d="M146.465 8.63636L132.55 40H124.225L129.463 28.9773L120.473 8.63636H128.994L133.606 20.6818L138.062 8.63636H146.465Z" fill="#D7FFDA"/>
<path d="M160.312 14.8106H156.873V29.8864H149.173V14.8106H146.788V8.63636H149.173V8.44697C149.173 5.7197 149.993 3.63636 151.635 2.19697C153.303 0.732324 155.687 0 158.788 0C159.413 0 159.895 0.0126261 160.234 0.0378783V6.36364C160.025 6.33838 159.739 6.32576 159.374 6.32576C158.54 6.32576 157.928 6.51515 157.537 6.89394C157.146 7.24747 156.925 7.82828 156.873 8.63636H160.312V14.8106Z" fill="#D7FFDA"/>
<path d="M184 19.0152C184 19.596 183.961 20.1768 183.883 20.7576H169.382C169.46 21.9192 169.786 22.7904 170.359 23.3712C170.958 23.9268 171.714 24.2045 172.626 24.2045C173.903 24.2045 174.815 23.649 175.362 22.5379H183.531C183.192 24.0025 182.528 25.3157 181.538 26.4773C180.573 27.6136 179.349 28.5101 177.864 29.1667C176.378 29.8232 174.737 30.1515 172.939 30.1515C170.776 30.1515 168.848 29.7096 167.154 28.8258C165.486 27.9419 164.17 26.6793 163.206 25.0379C162.268 23.3965 161.799 21.4646 161.799 19.2424C161.799 17.0202 162.268 15.101 163.206 13.4848C164.144 11.8434 165.447 10.5808 167.115 9.69697C168.809 8.81313 170.75 8.37121 172.939 8.37121C175.101 8.37121 177.017 8.80051 178.684 9.65909C180.352 10.5177 181.655 11.7551 182.593 13.3712C183.531 14.9621 184 16.8434 184 19.0152ZM176.183 17.1591C176.183 16.25 175.87 15.5429 175.245 15.0379C174.619 14.5076 173.838 14.2424 172.9 14.2424C171.962 14.2424 171.193 14.4949 170.594 15C169.994 15.4798 169.603 16.1995 169.421 17.1591H176.183Z" fill="#D7FFDA"/>
</svg>
