<svg width="60" height="60" viewBox="0 0 60 60" fill="none" xmlns="http://www.w3.org/2000/svg">
<path d="M30 1C35.7357 1 41.3425 2.70082 46.1115 5.88738C50.8806 9.07394 54.5976 13.6031 56.7925 18.9022C58.9874 24.2012 59.5617 30.0322 58.4428 35.6576C57.3238 41.2831 54.5618 46.4504 50.5061 50.5061C46.4504 54.5618 41.2831 57.3238 35.6576 58.4428C30.0322 59.5617 24.2012 58.9874 18.9022 56.7925C13.6031 54.5976 9.07394 50.8806 5.88738 46.1115C2.70082 41.3425 0.999999 35.7357 1 30" stroke="#0355B5" stroke-width="2"/>
<path opacity="0.2" d="M30 59C24.2643 59 18.6575 57.2992 13.8885 54.1126C9.11944 50.9261 5.40244 46.3969 3.20749 41.0978C1.01255 35.7988 0.438255 29.9678 1.55723 24.3424C2.6762 18.7169 5.43818 13.5496 9.4939 9.4939C13.5496 5.43818 18.7169 2.6762 24.3424 1.55723C29.9678 0.438255 35.7988 1.01255 41.0978 3.20749C46.3969 5.40243 50.9261 9.11944 54.1126 13.8885C57.2992 18.6575 59 24.2643 59 30" stroke="#0355B5" stroke-width="2"/>
</svg>
