<svg width="218" height="100" viewBox="0 0 218 100" fill="none" xmlns="http://www.w3.org/2000/svg">
<path d="M73.9458 33.1818L67.1839 59.8864H57.7642L53.9729 43.5227L50.1034 59.8864H40.6837L34 33.1818H42.2862L45.4913 51.4394L49.8298 33.1818H58.2333L62.4545 51.2879L65.6596 33.1818H73.9458Z" fill="white"/>
<path d="M87.3981 60.1515C85.2093 60.1515 83.2419 59.7096 81.4961 58.8258C79.7763 57.9419 78.4213 56.6793 77.4312 55.0379C76.441 53.3965 75.9459 51.4646 75.9459 49.2424C75.9459 47.0455 76.441 45.1263 77.4312 43.4848C78.4474 41.8434 79.8154 40.5808 81.5352 39.697C83.281 38.8131 85.2484 38.3712 87.4372 38.3712C89.626 38.3712 91.5803 38.8131 93.3001 39.697C95.0459 40.5808 96.4139 41.8434 97.4041 43.4848C98.4203 45.1263 98.9284 47.0455 98.9284 49.2424C98.9284 51.4394 98.4203 53.3712 97.4041 55.0379C96.4139 56.6793 95.0459 57.9419 93.3001 58.8258C91.5542 59.7096 89.5869 60.1515 87.3981 60.1515ZM87.3981 53.7121C88.4664 53.7121 89.3524 53.3333 90.0559 52.5758C90.7855 51.7929 91.1503 50.6818 91.1503 49.2424C91.1503 47.803 90.7855 46.7045 90.0559 45.947C89.3524 45.1894 88.4795 44.8106 87.4372 44.8106C86.3949 44.8106 85.522 45.1894 84.8184 45.947C84.1149 46.7045 83.7631 47.803 83.7631 49.2424C83.7631 50.7071 84.1018 51.8182 84.7793 52.5758C85.4568 53.3333 86.3297 53.7121 87.3981 53.7121Z" fill="white"/>
<path d="M109.706 42.3864C110.566 41.1742 111.608 40.2146 112.833 39.5076C114.058 38.8005 115.374 38.447 116.781 38.447V46.3636H114.631C112.963 46.3636 111.726 46.6793 110.918 47.3106C110.11 47.9419 109.706 49.0404 109.706 50.6061V59.8864H102.045V38.6364H109.706V42.3864Z" fill="white"/>
<path d="M133.246 59.8864L127.188 51.1742V59.8864H119.527V31.8561H127.188V46.9697L133.246 38.6364H142.431L133.793 49.3182L142.588 59.8864H133.246Z" fill="white"/>
<path d="M152.494 31.8561V59.8864H144.834V31.8561H152.494Z" fill="#D7FFDA"/>
<path d="M180.465 38.6364L166.55 70H158.225L163.463 58.9773L154.473 38.6364H162.994L167.606 50.6818L172.062 38.6364H180.465Z" fill="#D7FFDA"/>
<path d="M194.312 44.8106H190.873V59.8864H183.173V44.8106H180.788V38.6364H183.173V38.447C183.173 35.7197 183.993 33.6364 185.635 32.197C187.303 30.7323 189.687 30 192.788 30C193.413 30 193.895 30.0126 194.234 30.0379V36.3636C194.025 36.3384 193.739 36.3258 193.374 36.3258C192.54 36.3258 191.928 36.5152 191.537 36.8939C191.146 37.2475 190.925 37.8283 190.873 38.6364H194.312V44.8106Z" fill="#D7FFDA"/>
<path d="M218 49.0152C218 49.596 217.961 50.1768 217.883 50.7576H203.382C203.46 51.9192 203.786 52.7904 204.359 53.3712C204.958 53.9268 205.714 54.2045 206.626 54.2045C207.903 54.2045 208.815 53.649 209.362 52.5379H217.531C217.192 54.0025 216.528 55.3157 215.538 56.4773C214.573 57.6136 213.349 58.5101 211.864 59.1667C210.378 59.8232 208.737 60.1515 206.939 60.1515C204.776 60.1515 202.848 59.7096 201.154 58.8258C199.486 57.9419 198.17 56.6793 197.206 55.0379C196.268 53.3965 195.799 51.4646 195.799 49.2424C195.799 47.0202 196.268 45.101 197.206 43.4848C198.144 41.8434 199.447 40.5808 201.115 39.697C202.809 38.8131 204.75 38.3712 206.939 38.3712C209.101 38.3712 211.017 38.8005 212.684 39.6591C214.352 40.5177 215.655 41.7551 216.593 43.3712C217.531 44.9621 218 46.8434 218 49.0152ZM210.183 47.1591C210.183 46.25 209.87 45.5429 209.245 45.0379C208.619 44.5076 207.838 44.2424 206.9 44.2424C205.962 44.2424 205.193 44.4949 204.594 45C203.994 45.4798 203.603 46.1995 203.421 47.1591H210.183Z" fill="#D7FFDA"/>
</svg>
